<svg xmlns="http://www.w3.org/2000/svg" xmlns:xlink="http://www.w3.org/1999/xlink" width="566pt" height="2104" viewBox="0 0 566.47 1578.47"><g id="graph0" class="graph" data-name="vc_dfa" transform="translate(4,1574.469970703125) scale(1)"><polygon fill="#fff" stroke="none" points="-4 4 -4 -1574.47 562.47 -1574.47 562.47 4 -4 4"/><g id="node1" class="node" data-name="start" pointer-events="visible"><ellipse cx="1.8" cy="-632.47" fill="#000" stroke="#000" rx="1.8" ry="1.8"/></g><g id="node2" class="node" data-name="state_start" pointer-events="visible"><ellipse cx="81.7" cy="-632.47" fill="none" stroke="#000" rx="18" ry="18"/><text x="81.7" y="-628.27" font-family="Times,serif" font-size="14" text-anchor="middle">0</text></g><g id="edge1" class="edge" data-name="start-&gt;state_start"><path fill="none" stroke="#000" d="M3.9,-632.47C9.17,-632.47 32.35,-632.47 51.88,-632.47"/><polygon fill="#000" stroke="#000" points="51.86 -635.97 61.86 -632.47 51.86 -628.97 51.86 -635.97"/><text x="33.65" y="-636.67" font-family="Times,serif" font-size="14" text-anchor="middle">start</text></g><g id="node3" class="node" data-name="state_b" pointer-events="visible"><ellipse cx="166.51" cy="-1384.47" fill="none" stroke="#000" rx="18" ry="18"/><text x="166.51" y="-1380.27" font-family="Times,serif" font-size="14" text-anchor="middle">1</text></g><g id="edge2" class="edge" data-name="state_start-&gt;state_b"><path fill="none" stroke="#000" d="M84.41,-650.69C91.32,-723.9 118.13,-1003.8 145.81,-1233.47 150.92,-1275.88 157.43,-1324.9 161.53,-1355.3"/><polygon fill="#000" stroke="#000" points="158.02 -1355.42 162.83 -1364.86 164.95 -1354.48 158.02 -1355.42"/><text x="122.76" y="-1072.67" font-family="Times,serif" font-size="14" text-anchor="middle">b</text></g><g id="node4" class="node" data-name="state_c" pointer-events="visible"><ellipse cx="166.51" cy="-1206.47" fill="none" stroke="#000" rx="18" ry="18"/><text x="166.51" y="-1202.27" font-family="Times,serif" font-size="14" text-anchor="middle">4</text></g><g id="edge8" class="edge" data-name="state_start-&gt;state_c"><path fill="none" stroke="#000" d="M85.11,-650.5C93.27,-711.34 120.73,-914.73 145.81,-1082.47 150.66,-1114.89 156.61,-1152.02 160.69,-1177.13"/><polygon fill="#000" stroke="#000" points="157.23 -1177.62 162.29 -1186.92 164.14 -1176.49 157.23 -1177.62"/><text x="122.76" y="-962.67" font-family="Times,serif" font-size="14" text-anchor="middle">c</text></g><g id="node5" class="node" data-name="state_e" pointer-events="visible"><ellipse cx="166.51" cy="-1055.47" fill="none" stroke="#000" rx="18" ry="18"/><text x="166.51" y="-1051.27" font-family="Times,serif" font-size="14" text-anchor="middle">6</text></g><g id="edge12" class="edge" data-name="state_start-&gt;state_e"><path fill="none" stroke="#000" d="M86.21,-650.38C99.1,-716.26 143.99,-945.55 159.88,-1026.72"/><polygon fill="#000" stroke="#000" points="156.4 -1027.17 161.76 -1036.31 163.27 -1025.83 156.4 -1027.17"/><text x="122.76" y="-860.67" font-family="Times,serif" font-size="14" text-anchor="middle">e</text></g><g id="node6" class="node" data-name="state_f" pointer-events="visible"><ellipse cx="166.51" cy="-833.47" fill="none" stroke="#000" rx="18" ry="18"/><text x="166.51" y="-829.27" font-family="Times,serif" font-size="14" text-anchor="middle">8</text></g><g id="edge16" class="edge" data-name="state_start-&gt;state_f"><path fill="none" stroke="#000" d="M89.48,-648.92C103.7,-683.45 136.79,-763.77 154.26,-806.16"/><polygon fill="#000" stroke="#000" points="151.02 -807.49 158.06 -815.4 157.49 -804.82 151.02 -807.49"/><text x="122.76" y="-742.67" font-family="Times,serif" font-size="14" text-anchor="middle">f</text></g><g id="node7" class="node" data-name="state_i" pointer-events="visible"><ellipse cx="166.51" cy="-632.47" fill="none" stroke="#000" rx="20.89" ry="20.89"/><text x="166.51" y="-628.27" font-family="Times,serif" font-size="14" text-anchor="middle">11</text></g><g id="edge22" class="edge" data-name="state_start-&gt;state_i"><path fill="none" stroke="#000" d="M99.86,-632.47C109.63,-632.47 122.19,-632.47 133.7,-632.47"/><polygon fill="#000" stroke="#000" points="133.64 -635.97 143.64 -632.47 133.64 -628.97 133.64 -635.97"/><text x="122.76" y="-636.67" font-family="Times,serif" font-size="14" text-anchor="middle">i</text></g><g id="node8" class="node" data-name="state_r" pointer-events="visible"><ellipse cx="166.51" cy="-481.47" fill="none" stroke="#000" rx="20.89" ry="20.89"/><text x="166.51" y="-477.27" font-family="Times,serif" font-size="14" text-anchor="middle">14</text></g><g id="edge28" class="edge" data-name="state_start-&gt;state_r"><path fill="none" stroke="#000" d="M91.25,-616.88C105.14,-591.56 132.78,-541.16 150.14,-509.5"/><polygon fill="#000" stroke="#000" points="153.13 -511.32 154.87 -500.87 147 -507.95 153.13 -511.32"/><text x="122.76" y="-569.67" font-family="Times,serif" font-size="14" text-anchor="middle">r</text></g><g id="node9" class="node" data-name="state_t" pointer-events="visible"><ellipse cx="166.51" cy="-398.47" fill="none" stroke="#000" rx="20.89" ry="20.89"/><text x="166.51" y="-394.27" font-family="Times,serif" font-size="14" text-anchor="middle">16</text></g><g id="edge32" class="edge" data-name="state_start-&gt;state_t"><path fill="none" stroke="#000" d="M88.47,-615.45C99.41,-583.31 124,-511.53 145.81,-451.47 148.48,-444.12 151.4,-436.21 154.15,-428.8"/><polygon fill="#000" stroke="#000" points="157.41 -430.09 157.62 -419.5 150.85 -427.65 157.41 -430.09"/><text x="122.76" y="-529.67" font-family="Times,serif" font-size="14" text-anchor="middle">t</text></g><g id="node10" class="node" data-name="state_v" pointer-events="visible"><ellipse cx="166.51" cy="-232.47" fill="none" stroke="#000" rx="20.89" ry="20.89"/><text x="166.51" y="-228.27" font-family="Times,serif" font-size="14" text-anchor="middle">18</text></g><g id="edge35" class="edge" data-name="state_start-&gt;state_v"><path fill="none" stroke="#000" d="M86.37,-614.77C99.23,-552.64 142.42,-344 158.97,-264.03"/><polygon fill="#000" stroke="#000" points="162.4 -264.76 161 -254.26 155.54 -263.34 162.4 -264.76"/><text x="122.76" y="-459.67" font-family="Times,serif" font-size="14" text-anchor="middle">v</text></g><g id="node11" class="node" data-name="state_w" pointer-events="visible"><ellipse cx="166.51" cy="-81.47" fill="none" stroke="#000" rx="20.89" ry="20.89"/><text x="166.51" y="-77.27" font-family="Times,serif" font-size="14" text-anchor="middle">20</text></g><g id="edge39" class="edge" data-name="state_start-&gt;state_w"><path fill="none" stroke="#000" d="M85.25,-614.43C93.61,-555.31 121.12,-362.04 145.81,-202.47 150.51,-172.11 156.18,-137.51 160.22,-113.11"/><polygon fill="#000" stroke="#000" points="163.63 -113.94 161.82 -103.5 156.72 -112.79 163.63 -113.94"/><text x="122.76" y="-384.67" font-family="Times,serif" font-size="14" text-anchor="middle">w</text></g><g id="node12" class="node" data-name="state_boolean" pointer-events="visible"><ellipse cx="314.75" cy="-1530.47" fill="none" stroke="#000" rx="36" ry="36"/><ellipse cx="314.75" cy="-1530.47" fill="none" stroke="#000" rx="40" ry="40"/><text x="314.75" y="-1526.27" font-family="Times,serif" font-size="14" text-anchor="middle">2</text></g><g id="edge4" class="edge" data-name="state_b-&gt;state_boolean"><path fill="none" stroke="#000" d="M178.24,-1398.59C185.53,-1407.92 195.56,-1420.26 205.2,-1430.47 227.3,-1453.9 253.87,-1478.42 275.19,-1497.32"/><polygon fill="#000" stroke="#000" points="272.72 -1499.82 282.54 -1503.8 277.35 -1494.56 272.72 -1499.82"/><text x="226.2" y="-1473.67" font-family="Times,serif" font-size="14" text-anchor="middle">oolean</text></g><g id="node13" class="node" data-name="state_break" pointer-events="visible"><ellipse cx="314.75" cy="-1432.47" fill="none" stroke="#000" rx="36" ry="36"/><ellipse cx="314.75" cy="-1432.47" fill="none" stroke="#000" rx="40" ry="40"/><text x="314.75" y="-1428.27" font-family="Times,serif" font-size="14" text-anchor="middle">3</text></g><g id="edge6" class="edge" data-name="state_b-&gt;state_break"><path fill="none" stroke="#000" d="M184,-1389.89C203.65,-1396.34 237.36,-1407.4 265.5,-1416.64"/><polygon fill="#000" stroke="#000" points="264.33 -1419.94 274.93 -1419.73 266.52 -1413.29 264.33 -1419.94"/><text x="226.2" y="-1413.67" font-family="Times,serif" font-size="14" text-anchor="middle">reak</text></g><g id="node24" class="node" data-name="state_error" pointer-events="visible"><ellipse cx="528.94" cy="-787.47" fill="none" stroke="red" rx="25.54" ry="25.54"/><ellipse cx="528.94" cy="-787.47" fill="none" stroke="red" rx="29.54" ry="29.54"/><text x="528.94" y="-783.27" font-family="Times,serif" font-size="14" text-anchor="middle">420</text></g><g id="edge3" class="edge" data-name="state_b-&gt;state_error"><path fill="none" stroke="#000" d="M184.49,-1380.74C247.04,-1366.84 461.98,-1317.61 481.42,-1293.47 510.36,-1257.56 523.06,-942.73 526.75,-828.58"/><polygon fill="#000" stroke="#000" points="530.24 -828.86 527.06 -818.75 523.24 -828.64 530.24 -828.86"/><text x="314.75" y="-1365.67" font-family="Times,serif" font-size="14" text-anchor="middle">invalid characters</text></g><g id="node14" class="node" data-name="state_continue" pointer-events="visible"><ellipse cx="314.75" cy="-1281.47" fill="none" stroke="#000" rx="36" ry="36"/><ellipse cx="314.75" cy="-1281.47" fill="none" stroke="#000" rx="40" ry="40"/><text x="314.75" y="-1277.27" font-family="Times,serif" font-size="14" text-anchor="middle">5</text></g><g id="edge10" class="edge" data-name="state_c-&gt;state_continue"><path fill="none" stroke="#000" d="M183.16,-1214.5C203.39,-1224.88 239.49,-1243.39 268.62,-1258.33"/><polygon fill="#000" stroke="#000" points="266.75 -1261.3 277.24 -1262.75 269.94 -1255.07 266.75 -1261.3"/><text x="226.2" y="-1249.67" font-family="Times,serif" font-size="14" text-anchor="middle">ontinue</text></g><g id="edge9" class="edge" data-name="state_c-&gt;state_error"><path fill="none" stroke="#000" d="M184.86,-1205.67C244.97,-1202.49 442.75,-1188.62 481.42,-1142.47 520.61,-1095.71 527.05,-911.92 527.93,-828.75"/><polygon fill="#000" stroke="#000" points="531.43 -829.01 528.01 -818.99 524.43 -828.96 531.43 -829.01"/><text x="314.75" y="-1202.67" font-family="Times,serif" font-size="14" text-anchor="middle">invalid characters</text></g><g id="node15" class="node" data-name="state_else" pointer-events="visible"><ellipse cx="314.75" cy="-1130.47" fill="none" stroke="#000" rx="36" ry="36"/><ellipse cx="314.75" cy="-1130.47" fill="none" stroke="#000" rx="40" ry="40"/><text x="314.75" y="-1126.27" font-family="Times,serif" font-size="14" text-anchor="middle">7</text></g><g id="edge14" class="edge" data-name="state_e-&gt;state_else"><path fill="none" stroke="#000" d="M183.16,-1063.5C203.39,-1073.88 239.49,-1092.39 268.62,-1107.33"/><polygon fill="#000" stroke="#000" points="266.75 -1110.3 277.24 -1111.75 269.94 -1104.07 266.75 -1110.3"/><text x="226.2" y="-1098.67" font-family="Times,serif" font-size="14" text-anchor="middle">lse</text></g><g id="edge13" class="edge" data-name="state_e-&gt;state_error"><path fill="none" stroke="#000" d="M184.7,-1057C238.7,-1060.73 405.81,-1063.99 481.42,-970.47 514.25,-929.87 524.24,-868.95 527.1,-828.72"/><polygon fill="#000" stroke="#000" points="530.58 -829.14 527.66 -818.96 523.59 -828.74 530.58 -829.14"/><text x="314.75" y="-1060.67" font-family="Times,serif" font-size="14" text-anchor="middle">invalid characters</text></g><g id="node16" class="node" data-name="state_false" pointer-events="visible"><ellipse cx="314.75" cy="-979.47" fill="none" stroke="#000" rx="36" ry="36"/><ellipse cx="314.75" cy="-979.47" fill="none" stroke="#000" rx="40" ry="40"/><text x="314.75" y="-975.27" font-family="Times,serif" font-size="14" text-anchor="middle">9</text></g><g id="edge18" class="edge" data-name="state_f-&gt;state_false"><path fill="none" stroke="#000" d="M178.24,-847.59C185.53,-856.92 195.56,-869.26 205.2,-879.47 227.3,-902.9 253.87,-927.42 275.19,-946.32"/><polygon fill="#000" stroke="#000" points="272.72 -948.82 282.54 -952.8 277.35 -943.56 272.72 -948.82"/><text x="226.2" y="-922.67" font-family="Times,serif" font-size="14" text-anchor="middle">alse</text></g><g id="node17" class="node" data-name="state_for" pointer-events="visible"><ellipse cx="314.75" cy="-881.47" fill="none" stroke="#000" rx="36" ry="36"/><ellipse cx="314.75" cy="-881.47" fill="none" stroke="#000" rx="40" ry="40"/><text x="314.75" y="-877.27" font-family="Times,serif" font-size="14" text-anchor="middle">10</text></g><g id="edge20" class="edge" data-name="state_f-&gt;state_for"><path fill="none" stroke="#000" d="M184,-838.89C203.65,-845.34 237.36,-856.4 265.5,-865.64"/><polygon fill="#000" stroke="#000" points="264.33 -868.94 274.93 -868.73 266.52 -862.29 264.33 -868.94"/><text x="226.2" y="-862.67" font-family="Times,serif" font-size="14" text-anchor="middle">or</text></g><g id="edge17" class="edge" data-name="state_f-&gt;state_error"><path fill="none" stroke="#000" d="M184.39,-830.01C203.81,-826.11 236.7,-819.79 265.19,-815.67 360.85,-801.85 385.32,-802.79 481.42,-792.47 483.6,-792.24 485.84,-792 488.1,-791.76"/><polygon fill="#000" stroke="#000" points="488.33 -795.25 497.9 -790.7 487.58 -788.29 488.33 -795.25"/><text x="314.75" y="-819.67" font-family="Times,serif" font-size="14" text-anchor="middle">invalid characters</text></g><g id="node18" class="node" data-name="state_if" pointer-events="visible"><ellipse cx="314.75" cy="-730.47" fill="none" stroke="#000" rx="36" ry="36"/><ellipse cx="314.75" cy="-730.47" fill="none" stroke="#000" rx="40" ry="40"/><text x="314.75" y="-726.27" font-family="Times,serif" font-size="14" text-anchor="middle">12</text></g><g id="edge24" class="edge" data-name="state_i-&gt;state_if"><path fill="none" stroke="#000" d="M184.57,-643.91C205.76,-658.11 242.64,-682.82 271.59,-702.22"/><polygon fill="#000" stroke="#000" points="269.55 -705.07 279.81 -707.73 273.45 -699.25 269.55 -705.07"/><text x="226.2" y="-687.67" font-family="Times,serif" font-size="14" text-anchor="middle">f</text></g><g id="node19" class="node" data-name="state_int" pointer-events="visible"><ellipse cx="314.75" cy="-632.47" fill="none" stroke="#000" rx="36" ry="36"/><ellipse cx="314.75" cy="-632.47" fill="none" stroke="#000" rx="40" ry="40"/><text x="314.75" y="-628.27" font-family="Times,serif" font-size="14" text-anchor="middle">13</text></g><g id="edge26" class="edge" data-name="state_i-&gt;state_int"><path fill="none" stroke="#000" d="M187.84,-632.47C207.17,-632.47 237.04,-632.47 262.83,-632.47"/><polygon fill="#000" stroke="#000" points="262.83 -635.97 272.83 -632.47 262.83 -628.97 262.83 -635.97"/><text x="226.2" y="-636.67" font-family="Times,serif" font-size="14" text-anchor="middle">nt</text></g><g id="edge23" class="edge" data-name="state_i-&gt;state_error"><path fill="none" stroke="#000" d="M182.23,-618.34C200.16,-602.21 232.14,-576.77 265.19,-566.67 307.32,-553.81 322.67,-552.3 364.31,-566.67 426.82,-588.25 442.67,-604.88 481.42,-658.47 500.65,-685.06 512.66,-720.41 519.65,-747.38"/><polygon fill="#000" stroke="#000" points="516.2 -748.02 521.98 -756.9 523 -746.36 516.2 -748.02"/><text x="314.75" y="-570.67" font-family="Times,serif" font-size="14" text-anchor="middle">invalid characters</text></g><g id="node20" class="node" data-name="state_return" pointer-events="visible"><ellipse cx="314.75" cy="-481.47" fill="none" stroke="#000" rx="36" ry="36"/><ellipse cx="314.75" cy="-481.47" fill="none" stroke="#000" rx="40" ry="40"/><text x="314.75" y="-477.27" font-family="Times,serif" font-size="14" text-anchor="middle">15</text></g><g id="edge30" class="edge" data-name="state_r-&gt;state_return"><path fill="none" stroke="#000" d="M187.84,-481.47C207.17,-481.47 237.04,-481.47 262.83,-481.47"/><polygon fill="#000" stroke="#000" points="262.83 -484.97 272.83 -481.47 262.83 -477.97 262.83 -484.97"/><text x="226.2" y="-485.67" font-family="Times,serif" font-size="14" text-anchor="middle">eturn</text></g><g id="edge29" class="edge" data-name="state_r-&gt;state_error"><path fill="none" stroke="#000" d="M182.23,-467.34C200.16,-451.21 232.14,-425.77 265.19,-415.67 361.02,-386.41 423.94,-397.4 481.42,-479.47 511.09,-521.84 522.4,-672.83 526.22,-746.48"/><polygon fill="#000" stroke="#000" points="522.7 -746.28 526.69 -756.1 529.69 -745.93 522.7 -746.28"/><text x="314.75" y="-420.67" font-family="Times,serif" font-size="14" text-anchor="middle">invalid characters</text></g><g id="node21" class="node" data-name="state_true" pointer-events="visible"><ellipse cx="314.75" cy="-330.47" fill="none" stroke="#000" rx="36" ry="36"/><ellipse cx="314.75" cy="-330.47" fill="none" stroke="#000" rx="40" ry="40"/><text x="314.75" y="-326.27" font-family="Times,serif" font-size="14" text-anchor="middle">17</text></g><g id="edge33" class="edge" data-name="state_t-&gt;state_true"><path fill="none" stroke="#000" d="M184.46,-387.48C190.85,-383.54 198.24,-379.2 205.2,-375.67 224.7,-365.79 246.88,-356.26 266.08,-348.53"/><polygon fill="#000" stroke="#000" points="267.3 -351.81 275.3 -344.87 264.71 -345.31 267.3 -351.81"/><text x="226.2" y="-380.67" font-family="Times,serif" font-size="14" text-anchor="middle">rue</text></g><g id="node22" class="node" data-name="state_void" pointer-events="visible"><ellipse cx="314.75" cy="-232.47" fill="none" stroke="#000" rx="36" ry="36"/><ellipse cx="314.75" cy="-232.47" fill="none" stroke="#000" rx="40" ry="40"/><text x="314.75" y="-228.27" font-family="Times,serif" font-size="14" text-anchor="middle">19</text></g><g id="edge37" class="edge" data-name="state_v-&gt;state_void"><path fill="none" stroke="#000" d="M187.84,-232.47C207.17,-232.47 237.04,-232.47 262.83,-232.47"/><polygon fill="#000" stroke="#000" points="262.83 -235.97 272.83 -232.47 262.83 -228.97 262.83 -235.97"/><text x="226.2" y="-236.67" font-family="Times,serif" font-size="14" text-anchor="middle">oid</text></g><g id="edge36" class="edge" data-name="state_v-&gt;state_error"><path fill="none" stroke="#000" d="M182.23,-218.34C200.16,-202.21 232.14,-176.77 265.19,-166.67 362.87,-136.84 429.36,-156.61 481.42,-244.47 506.81,-287.31 521.9,-626.9 526.46,-746.21"/><polygon fill="#000" stroke="#000" points="522.97 -746.32 526.84 -756.18 529.96 -746.06 522.97 -746.32"/><text x="314.75" y="-171.67" font-family="Times,serif" font-size="14" text-anchor="middle">invalid characters</text></g><g id="node23" class="node" data-name="state_while" pointer-events="visible"><ellipse cx="314.75" cy="-81.47" fill="none" stroke="#000" rx="36" ry="36"/><ellipse cx="314.75" cy="-81.47" fill="none" stroke="#000" rx="40" ry="40"/><text x="314.75" y="-77.27" font-family="Times,serif" font-size="14" text-anchor="middle">21</text></g><g id="edge41" class="edge" data-name="state_w-&gt;state_while"><path fill="none" stroke="#000" d="M187.84,-81.47C207.17,-81.47 237.04,-81.47 262.83,-81.47"/><polygon fill="#000" stroke="#000" points="262.83 -84.97 272.83 -81.47 262.83 -77.97 262.83 -84.97"/><text x="226.2" y="-85.67" font-family="Times,serif" font-size="14" text-anchor="middle">hile</text></g><g id="edge40" class="edge" data-name="state_w-&gt;state_error"><path fill="none" stroke="#000" d="M182.23,-67.34C200.16,-51.21 232.14,-25.77 265.19,-15.67 360.9,13.55 427.25,5.67 481.42,-78.47 517.59,-134.65 525.86,-603.57 527.55,-746.37"/><polygon fill="#000" stroke="#000" points="524.05 -746.15 527.66 -756.11 531.05 -746.07 524.05 -746.15"/><text x="314.75" y="-20.67" font-family="Times,serif" font-size="14" text-anchor="middle">invalid characters</text></g><g id="edge5" class="edge" data-name="state_boolean-&gt;state_error"><path fill="none" stroke="#000" d="M354.32,-1522.28C393.52,-1511.74 452.47,-1489.31 481.42,-1445.47 515.35,-1394.11 525.1,-964.87 527.36,-828.73"/><polygon fill="#000" stroke="#000" points="530.86 -828.79 527.52 -818.73 523.86 -828.68 530.86 -828.79"/><text x="431.87" y="-1515.67" font-family="Times,serif" font-size="14" text-anchor="middle">invalid characters</text></g><g id="edge7" class="edge" data-name="state_break-&gt;state_error"><path fill="none" stroke="#000" d="M354.94,-1429.75C393.77,-1424.78 451.61,-1410.79 481.42,-1371.47 514.05,-1328.44 524.56,-954.81 527.2,-828.78"/><polygon fill="#000" stroke="#000" points="530.69 -828.96 527.4 -818.89 523.69 -828.82 530.69 -828.96"/><text x="431.87" y="-1428.67" font-family="Times,serif" font-size="14" text-anchor="middle">invalid characters</text></g><g id="edge11" class="edge" data-name="state_continue-&gt;state_error"><path fill="none" stroke="#000" d="M355.08,-1278.53C393.73,-1273.39 451.16,-1259.26 481.42,-1220.47 505.24,-1189.94 520.73,-930.92 525.97,-828.71"/><polygon fill="#000" stroke="#000" points="529.46 -829.01 526.47 -818.84 522.47 -828.65 529.46 -829.01"/><text x="431.87" y="-1276.67" font-family="Times,serif" font-size="14" text-anchor="middle">invalid characters</text></g><g id="edge15" class="edge" data-name="state_else-&gt;state_error"><path fill="none" stroke="#000" d="M354.99,-1127.12C393.27,-1121.65 450.18,-1107.27 481.42,-1069.47 511.23,-1033.41 522.37,-897.44 526.17,-828.33"/><polygon fill="#000" stroke="#000" points="529.65 -828.72 526.68 -818.56 522.66 -828.36 529.65 -828.72"/><text x="431.87" y="-1125.67" font-family="Times,serif" font-size="14" text-anchor="middle">invalid characters</text></g><g id="edge19" class="edge" data-name="state_false-&gt;state_error"><path fill="none" stroke="#000" d="M352.48,-965.15C389.08,-949.33 444.94,-920.79 481.42,-881.47 496.06,-865.7 507.09,-844.47 514.73,-826.17"/><polygon fill="#000" stroke="#000" points="517.97 -827.51 518.39 -816.93 511.46 -824.94 517.97 -827.51"/><text x="431.87" y="-953.67" font-family="Times,serif" font-size="14" text-anchor="middle">invalid characters</text></g><g id="edge21" class="edge" data-name="state_for-&gt;state_error"><path fill="none" stroke="#000" d="M353.47,-870.72C387.86,-860.19 439.53,-842.55 481.42,-820.47 486.21,-817.95 491.07,-815 495.76,-811.93"/><polygon fill="#000" stroke="#000" points="497.56 -814.94 503.81 -806.38 493.59 -809.17 497.56 -814.94"/><text x="431.87" y="-864.67" font-family="Times,serif" font-size="14" text-anchor="middle">invalid characters</text></g><g id="edge25" class="edge" data-name="state_if-&gt;state_error"><path fill="none" stroke="#000" d="M353.69,-740.66C391.99,-750.95 450.84,-766.76 489.36,-777.11"/><polygon fill="#000" stroke="#000" points="488.11 -780.4 498.68 -779.61 489.93 -773.64 488.11 -780.4"/><text x="431.87" y="-777.67" font-family="Times,serif" font-size="14" text-anchor="middle">invalid characters</text></g><g id="edge27" class="edge" data-name="state_int-&gt;state_error"><path fill="none" stroke="#000" d="M351.94,-648.21C387.35,-664.73 441.62,-693.07 481.42,-727.67 490.21,-735.31 498.48,-744.81 505.54,-753.98"/><polygon fill="#000" stroke="#000" points="502.52 -755.78 511.28 -761.74 508.14 -751.62 502.52 -755.78"/><text x="431.87" y="-731.67" font-family="Times,serif" font-size="14" text-anchor="middle">invalid characters</text></g><g id="edge31" class="edge" data-name="state_return-&gt;state_error"><path fill="none" stroke="#000" d="M354.95,-480.94C392.92,-482.66 449.34,-491.57 481.42,-526.67 510.19,-558.15 521.69,-680.89 525.85,-746.15"/><polygon fill="#000" stroke="#000" points="522.35 -746.35 526.45 -756.12 529.34 -745.93 522.35 -746.35"/><text x="431.87" y="-530.67" font-family="Times,serif" font-size="14" text-anchor="middle">invalid characters</text></g><g id="edge34" class="edge" data-name="state_true-&gt;state_error"><path fill="none" stroke="#000" d="M355.08,-329.49C393.43,-330.85 450.38,-339.45 481.42,-375.67 505.26,-403.5 520.62,-647.81 525.9,-746.44"/><polygon fill="#000" stroke="#000" points="522.39 -746.41 526.41 -756.21 529.38 -746.04 522.39 -746.41"/><text x="431.87" y="-380.67" font-family="Times,serif" font-size="14" text-anchor="middle">invalid characters</text></g><g id="edge38" class="edge" data-name="state_void-&gt;state_error"><path fill="none" stroke="#000" d="M354.37,-239.56C393.32,-248.9 451.79,-269.38 481.42,-311.67 506.1,-346.89 521.31,-636.88 526.21,-746.08"/><polygon fill="#000" stroke="#000" points="522.71 -746.23 526.65 -756.07 529.71 -745.92 522.71 -746.23"/><text x="431.87" y="-316.67" font-family="Times,serif" font-size="14" text-anchor="middle">invalid characters</text></g><g id="edge42" class="edge" data-name="state_while-&gt;state_error"><path fill="none" stroke="#000" d="M355.04,-80.21C393.65,-81.31 451.06,-89.69 481.42,-126.67 520.73,-174.56 526.83,-609.96 527.77,-746.63"/><polygon fill="#000" stroke="#000" points="524.27 -746.31 527.83 -756.29 531.27 -746.27 524.27 -746.31"/><text x="431.87" y="-131.67" font-family="Times,serif" font-size="14" text-anchor="middle">invalid characters</text></g></g></svg>